<svg xmlns="http://www.w3.org/2000/svg" viewBox="0 0 1000 1000"><path d="M338 98c-8.3-5.7-24.6-13.5-44.8-12.9-.1.1-.2.3-.2.4 10 8 20.8 15.1 32 21.3 7.7 4.2 15.8 8 24.5 7.5.1-.4.2-.7.2-1.1-1.6-4.5-5.3-10.8-11.7-15.2z" fill="#ff8895"></path><path d="M350.1 99.4c-1.7-7.1-7-12.8-12.9-17.1-18.7-13.5-36.9-9.1-44 2.8 20.1-.5 36.5 7.2 44.8 12.9 6.4 4.4 10.1 10.8 11.8 15.2.9-4.6 1.4-9.3.3-13.8z" fill="#ff5759"></path><path d="M350.7 113.7c-4.3-11.6-13.9-18.4-24.9-23.1-14.9-6.3-31.3-7.8-47.1-4.5-.9.2-.5 1.6.4 1.4 14.7-3.1 29.9-1.9 43.9 3.5 11.3 4.4 21.9 11.1 26.2 23 .4.9 1.9.6 1.5-.3z" fill="#f13e40"></path><path d="M105.4 94.2c3.4 1.2 6.8 1.7 10.2 1.7 15.6 0 45.5-15.3 54.8-37.4-36.5-.1-45.1 30.1-65.7 35.8" fill="#ff5759"></path><path d="M91.1 91.2c10.4 8.2 27.1 11.4 40.7 11.4 28 0 40.8-15.2 40.8-33.7 0-3.6-.8-7-1.7-10.5-15.4 13-46.9 36-67 36-4.6 0-8.6-1.5-12.8-3.2" fill="#ff8895"></path><g><path d="M75.3 271.7c1.6-2 3.3-4.1 5-6.1-1.4 2.2-3.1 4.3-5 6.1z" fill="none"></path><path d="M75.3 271.7c1.9-1.9 3.5-3.9 5-6.1 16-19.3 34.8-39.1 59-39.1 1.8 0 3.5.2 5.2.6.5.1.9.3 1.4.4 7.5 3 10.1 14.1-2.2 21.6-13.9 8.4-31.9 5.7-47.4 10.7-7.9 2.6-15.1 7.1-21.5 12.5.2-.2.3-.4.5-.6 0 .1 0 0 0 0z" fill="#ff8895"></path><path d="M80.4 265.6c12.1-18.1 11.5-46 23.2-54.3 5.7-4 13.7-3.3 19.9 0 4.5 2.4 8.2 5.9 11.6 9.6 1.5 1.6 2.8 3.7 4.7 4.7 1.5.8 3.2 1 4.8 1.5-1.7-.4-3.4-.6-5.2-.6-24.3 0-43.1 19.8-59 39.1z" fill="#ff5759"></path><path d="M75.3 271.8s0-.1 0 0c0-.1 0 0 0 0z" fill="#ff7f00" opacity=".47"></path><path d="M75.8 272.3c12.8-15.7 26.6-33.4 45.9-41.4 4.9-2 10.1-3.3 15.5-3.6 5.1-.3 10.1 1.6 15.2 1 2.5-.3 6.1-1.2 7.1-4 .3-.9-1.1-1.3-1.4-.4-2.1 5.8-14.6 1.8-18.7 1.8-8.4-.2-16.8 2.6-24 6.6-16.5 9.1-28.8 24.5-40.5 38.9-.7.8.3 1.8.9 1.1z" fill="#f13e40"></path></g></svg>